<svg xmlns="http://www.w3.org/2000/svg" width="43" height="32" viewBox="0 0 43 32"><path d="M0 0h60.8v2.462H0V0zM0 4.923h60.8v2.462H0V4.923zM0 9.846h60.8v2.462H0V9.846zM0 14.77h60.8v2.46H0v-2.46zM0 19.692h60.8v2.462H0v-2.462zM0 24.616h60.8v2.462H0v-2.462zM0 29.54h60.8V32H0v-2.46z" fill="#BD3D44"/><path d="M0 2.462h60.8v2.462H0V2.462zM0 7.385h60.8v2.462H0V7.385zM0 12.308h60.8v2.462H0v-2.462zM0 17.23h60.8v2.463H0V17.23zM0 22.154h60.8v2.462H0v-2.462zM0 27.077h60.8v2.462H0v-2.463z" fill="#FFF"/><path d="M0 0h24.32v17.23H0V0z" fill="#192F5D"/><path d="M2.027.737l.22.68h.717l-.58.422.222.68-.58-.42-.578.42.22-.68-.578-.422h.716zM6.08.737l.22.68h.717l-.58.422.222.68-.58-.42-.58.42.222-.68-.58-.422h.717zM10.133.737l.22.68h.717l-.58.422.222.68-.58-.42-.578.42.22-.68-.578-.422h.716zM14.187.737l.22.68h.717l-.58.422.222.68-.58-.42-.578.42.22-.68-.578-.422h.716zM18.24.737l.22.68h.717l-.58.422.222.68-.58-.42-.58.42.222-.68-.58-.422h.717zM22.294.737l.22.68h.717l-.578.422.22.68-.578-.42-.58.42.222-.68-.58-.422h.717zM4.053 2.46l.22.682h.717l-.58.42.222.682-.58-.42-.578.42.22-.68-.578-.422h.716zM8.107 2.46l.22.682h.717l-.58.42.222.682-.58-.42-.578.42.22-.68-.578-.422h.716zM12.16 2.46l.22.682h.717l-.58.42.222.682-.58-.42-.58.42.222-.68-.58-.422h.717zM16.214 2.46l.22.682h.717l-.578.42.22.682-.578-.42-.58.42.222-.68-.58-.422h.717zM20.267 2.46l.22.682h.717l-.58.42.222.682-.58-.42-.578.42.22-.68-.578-.422h.716zM2.027 4.184l.22.68h.717l-.58.422.222.68-.58-.42-.578.42.22-.68-.578-.42h.716zM6.08 4.184l.22.68h.717l-.58.422.222.68-.58-.42-.58.42.222-.68-.58-.42h.717zM10.133 4.184l.22.68h.717l-.58.422.222.68-.58-.42-.578.42.22-.68-.578-.42h.716zM14.187 4.184l.22.68h.717l-.58.422.222.68-.58-.42-.578.42.22-.68-.578-.42h.716zM18.24 4.184l.22.68h.717l-.58.422.222.68-.58-.42-.58.42.222-.68-.58-.42h.717zM22.294 4.184l.22.68h.717l-.578.422.22.68-.578-.42-.58.42.222-.68-.58-.42h.717zM4.053 5.907l.22.68h.717l-.58.422.222.68-.58-.42-.578.42.22-.68-.578-.422h.716zM8.107 5.907l.22.68h.717l-.58.422.222.68-.58-.42-.578.42.22-.68-.578-.422h.716zM12.16 5.907l.22.68h.717l-.58.422.222.68-.58-.42-.58.42.222-.68-.58-.422h.717zM16.214 5.907l.22.68h.717l-.578.422.22.68-.578-.42-.58.42.222-.68-.58-.422h.717zM20.267 5.907l.22.68h.717l-.58.422.222.68-.58-.42-.578.42.22-.68-.578-.422h.716zM2.027 7.63l.22.68h.717l-.58.422.222.68-.58-.42-.578.42.22-.68-.578-.42h.716zM6.08 7.63l.22.68h.717l-.58.422.222.68-.58-.42-.58.42.222-.68-.58-.42h.717zM10.133 7.63l.22.68h.717l-.58.422.222.68-.58-.42-.578.42.22-.68-.578-.42h.716zM14.187 7.63l.22.68h.717l-.58.422.222.68-.58-.42-.578.42.22-.68-.578-.42h.716zM18.24 7.63l.22.68h.717l-.58.422.222.68-.58-.42-.58.42.222-.68-.58-.42h.717zM22.294 7.63l.22.68h.717l-.578.422.22.68-.578-.42-.58.42.222-.68-.58-.42h.717zM4.053 9.353l.22.68h.717l-.58.422.222.68-.58-.42-.578.42.22-.68-.578-.42h.716zM8.107 9.353l.22.68h.717l-.58.422.222.68-.58-.42-.578.42.22-.68-.578-.42h.716zM12.16 9.353l.22.68h.717l-.58.422.222.68-.58-.42-.58.42.222-.68-.58-.42h.717zM16.214 9.353l.22.68h.717l-.578.422.22.68-.578-.42-.58.42.222-.68-.58-.42h.717zM20.267 9.353l.22.68h.717l-.58.422.222.68-.58-.42-.578.42.22-.68-.578-.42h.716zM2.027 11.076l.22.68h.717l-.58.422.222.68-.58-.42-.578.42.22-.68-.578-.42h.716zM6.08 11.076l.22.68h.717l-.58.422.222.68-.58-.42-.58.42.222-.68-.58-.42h.717zM10.133 11.076l.22.68h.717l-.58.422.222.68-.58-.42-.578.42.22-.68-.578-.42h.716zM14.187 11.076l.22.68h.717l-.58.422.222.68-.58-.42-.578.42.22-.68-.578-.42h.716zM18.24 11.076l.22.68h.717l-.58.422.222.68-.58-.42-.58.42.222-.68-.58-.42h.717zM22.294 11.076l.22.68h.717l-.578.422.22.68-.578-.42-.58.42.222-.68-.58-.42h.717zM4.053 12.8l.22.68h.717l-.58.42.222.682-.58-.42-.578.42.22-.68-.578-.422h.716zM8.107 12.8l.22.68h.717l-.58.42.222.682-.58-.42-.578.42.22-.68-.578-.422h.716zM12.16 12.8l.22.68h.717l-.58.42.222.682-.58-.42-.58.42.222-.68-.58-.422h.717zM16.214 12.8l.22.68h.717l-.578.42.22.682-.578-.42-.58.42.222-.68-.58-.422h.717zM20.267 12.8l.22.68h.717l-.58.42.222.682-.58-.42-.578.42.22-.68-.578-.422h.716zM2.027 14.522l.22.68h.717l-.58.422.222.68-.58-.42-.578.42.22-.68-.578-.42h.716zM6.08 14.522l.22.68h.717l-.58.422.222.68-.58-.42-.58.42.222-.68-.58-.42h.717zM10.133 14.522l.22.68h.717l-.58.422.222.68-.58-.42-.578.42.22-.68-.578-.42h.716zM14.187 14.522l.22.68h.717l-.58.422.222.68-.58-.42-.578.42.22-.68-.578-.42h.716zM18.24 14.522l.22.68h.717l-.58.422.222.68-.58-.42-.58.42.222-.68-.58-.42h.717zM22.294 14.522l.22.68h.717l-.578.422.22.68-.578-.42-.58.42.222-.68-.58-.42h.717z" fill="#FFF"/></svg>