<svg id="Capa_1" enable-background="new 0 0 512 512" height="512" viewBox="0 0 512 512" width="512" xmlns="http://www.w3.org/2000/svg"><g><circle cx="256" cy="256" fill="#b1705b" r="256"/><g><path d="m512 256c0-21.959-2.769-43.271-7.969-63.609l-102.951-102.951-70.42 74.66-74.66-74.66.64 49-49-49-48.36 333.12 89.327 89.326c2.457.07 4.92.114 7.393.114 141.385 0 256-114.615 256-256z" fill="#885140"/></g><g><path d="m352.72 422.56 15-30-15-10-15 10z" fill="#8dc805"/><path d="m304.36 89.44h33.36l15 10 15-10h33.36v236.4l-48.36 10-48.36-10z" fill="#8dc805"/><path d="m159.28 422.56 15-30-15-10-15 10z" fill="#ffd300"/><path d="m110.92 89.44h33.36l15 10 15-10h33.36v236.4l-48.36 10-48.36-10z" fill="#ffd300"/><path d="m337.72 89.44h30v236.4l-15 10-15-10z" fill="#403b41"/><path d="m144.28 89.44h30v236.4l-16.12 10-13.88-10z" fill="#544f56"/><g><path d="m241 119.44-33.36 66.72 24.18 10 24.18-10 10-29.56-10-37.16-7.64-6z" fill="#fff"/><path d="m271 119.44-7.5-7-7.5 7v66.72l20.2 10 28.16-10z" fill="#e3eaee"/></g><g><path d="m304.36 186.16h-33.36l-15 10v216.4l15 10h33.36z" fill="#5ecdf3"/><path d="m207.64 186.16v236.4h33.36l15-10v-216.4l-15-10z" fill="#9de1f7"/></g><g><path d="m241 119.44h15l4-10.84-4-19.16z" fill="#9de1f7"/><path d="m241 186.16v236.4h15l10-143.56-10-92.84z" fill="#544f56"/><path d="m256 186.16h15v236.4h-15z" fill="#403b41"/><path d="m256 89.44v30h15z" fill="#5ecdf3"/></g><path d="m110.92 325.84 33.36 66.72h30l33.36-66.72z" fill="#fff"/><path d="m304.36 325.84 33.36 66.72h30l33.36-66.72z" fill="#e3eaee"/></g></g></svg>