<?xml version="1.0" encoding="utf-8"?>
<svg version="1.1" id="Layer_1" xmlns="http://www.w3.org/2000/svg" xmlns:xlink="http://www.w3.org/1999/xlink" x="0px" y="0px"
	 width="47px" height="9px" viewBox="0 0 47 9" xml:space="preserve">
<style type="text/css">
	.st0{fill:#008A00;}
	.st1{fill-rule:evenodd;clip-rule:evenodd;fill:#FFFFFF;}
	.st2{fill-rule:evenodd;clip-rule:evenodd;fill:#008A00;}
	.st3{fill:#0078D7;}
	.st4{fill:#094AB2;}
	.st5{fill-rule:evenodd;clip-rule:evenodd;fill:#094AB2;}
	.st6{fill:#DC3C00;}
	.st7{fill-rule:evenodd;clip-rule:evenodd;fill:#DC3C00;}
	.st8{fill:#107C10;}
	.st9{fill-rule:evenodd;clip-rule:evenodd;fill:#107C10;}
	.st10{fill:#D24726;}
	.st11{fill:#FFB800;}
	.st12{fill-rule:evenodd;clip-rule:evenodd;fill:#434856;}
	.st13{fill-rule:evenodd;clip-rule:evenodd;fill:#FFB800;}
	.st14{fill:#2A3282;}
	.st15{fill:#249DD1;}
	.st16{fill:#A0D5EB;}
	.st17{fill:#FFFFFF;}
	.st18{fill:#666666;}
	.st19{fill:#00ADF1;}
	.st20{fill:#00AFF0;}
	.st21{fill-rule:evenodd;clip-rule:evenodd;fill:#D24726;}
	.st22{opacity:0.25;}
	.st23{fill:#0072C6;}
	.st24{opacity:0.6;fill:#FFFFFF;}
	.st25{fill:none;}
	.st26{fill:#F25022;}
	.st27{fill:#7FBA00;}
	.st28{fill:#00A4EF;}
	.st29{fill:#FFB900;}
	.st30{fill:#737373;}
</style>
<path class="st30" d="M9.131,0.61v8.247H7.699V2.392H7.676L5.117,8.856H4.168L1.546,2.392H1.529v6.464H0.206V0.61h2.053l2.369,6.113
	h0.034L7.164,0.61H9.131z M10.329,1.236c0-0.23,0.083-0.423,0.25-0.578s0.365-0.233,0.595-0.233c0.245,0,0.449,0.08,0.61,0.239
	c0.161,0.159,0.242,0.35,0.242,0.572c0,0.226-0.082,0.416-0.247,0.569c-0.165,0.153-0.366,0.23-0.604,0.23
	c-0.238,0-0.438-0.078-0.601-0.233C10.41,1.648,10.329,1.459,10.329,1.236z M11.864,2.944v5.912h-1.392V2.944H11.864z M16.085,7.844
	c0.207,0,0.435-0.048,0.684-0.144c0.249-0.096,0.479-0.222,0.69-0.38v1.294c-0.222,0.127-0.474,0.222-0.756,0.288
	C16.422,8.967,16.112,9,15.775,9c-0.87,0-1.578-0.275-2.122-0.825c-0.545-0.55-0.817-1.253-0.817-2.108
	c0-0.951,0.278-1.734,0.834-2.349c0.556-0.615,1.344-0.923,2.364-0.923c0.261,0,0.524,0.034,0.791,0.101
	c0.266,0.067,0.478,0.145,0.635,0.233v1.334c-0.215-0.157-0.434-0.279-0.658-0.365c-0.224-0.086-0.453-0.129-0.687-0.129
	c-0.548,0-0.991,0.178-1.328,0.535c-0.337,0.356-0.506,0.838-0.506,1.443c0,0.598,0.162,1.064,0.486,1.397
	C15.089,7.677,15.529,7.844,16.085,7.844z M21.422,2.847c0.111,0,0.211,0.008,0.299,0.023s0.163,0.034,0.224,0.058v1.409
	c-0.073-0.054-0.179-0.104-0.319-0.152c-0.14-0.048-0.31-0.072-0.509-0.072c-0.341,0-0.63,0.144-0.866,0.431
	c-0.236,0.288-0.354,0.73-0.354,1.328v2.985h-1.392V2.944h1.392v0.932h0.023c0.127-0.322,0.318-0.574,0.575-0.756
	C20.753,2.938,21.062,2.847,21.422,2.847z M22.021,5.987c0-0.978,0.276-1.752,0.828-2.323c0.552-0.571,1.319-0.857,2.3-0.857
	c0.924,0,1.646,0.275,2.165,0.825c0.519,0.55,0.779,1.293,0.779,2.228c0,0.959-0.276,1.721-0.828,2.289
	C26.713,8.716,25.962,9,25.011,9c-0.916,0-1.644-0.269-2.182-0.808C22.29,7.654,22.021,6.918,22.021,5.987z M23.47,5.941
	c0,0.617,0.14,1.089,0.42,1.415c0.28,0.326,0.68,0.489,1.202,0.489c0.506,0,0.891-0.163,1.156-0.489
	c0.265-0.326,0.397-0.809,0.397-1.449c0-0.636-0.137-1.117-0.411-1.441C25.959,4.142,25.575,3.98,25.08,3.98
	c-0.51,0-0.906,0.17-1.188,0.509C23.611,4.828,23.47,5.312,23.47,5.941z M30.164,4.497c0,0.199,0.063,0.356,0.19,0.469
	c0.126,0.113,0.406,0.256,0.84,0.428c0.556,0.222,0.946,0.473,1.17,0.751C32.588,6.423,32.7,6.759,32.7,7.154
	c0,0.556-0.214,1.003-0.641,1.34C31.631,8.831,31.053,9,30.325,9c-0.245,0-0.517-0.03-0.814-0.089
	c-0.297-0.059-0.549-0.135-0.756-0.227V7.315c0.253,0.176,0.525,0.316,0.817,0.42c0.291,0.104,0.556,0.155,0.794,0.155
	c0.314,0,0.546-0.044,0.696-0.132c0.15-0.088,0.224-0.236,0.224-0.443c0-0.192-0.078-0.354-0.233-0.486
	c-0.155-0.132-0.45-0.285-0.883-0.457c-0.514-0.215-0.878-0.456-1.093-0.724c-0.215-0.268-0.322-0.61-0.322-1.024
	c0-0.533,0.212-0.971,0.636-1.314c0.424-0.343,0.973-0.515,1.648-0.515c0.207,0,0.439,0.023,0.696,0.069
	c0.257,0.046,0.471,0.106,0.644,0.178v1.323c-0.184-0.123-0.399-0.228-0.644-0.316c-0.245-0.088-0.489-0.132-0.73-0.132
	c-0.265,0-0.471,0.052-0.618,0.155C30.237,4.175,30.164,4.317,30.164,4.497z M33.298,5.987c0-0.978,0.276-1.752,0.828-2.323
	c0.552-0.571,1.319-0.857,2.3-0.857c0.924,0,1.646,0.275,2.165,0.825c0.519,0.55,0.779,1.293,0.779,2.228
	c0,0.959-0.276,1.721-0.828,2.289C37.99,8.716,37.239,9,36.288,9c-0.916,0-1.644-0.269-2.182-0.808
	C33.567,7.654,33.298,6.918,33.298,5.987z M34.747,5.941c0,0.617,0.14,1.089,0.42,1.415c0.28,0.326,0.68,0.489,1.202,0.489
	c0.506,0,0.891-0.163,1.156-0.489c0.265-0.326,0.397-0.809,0.397-1.449c0-0.636-0.137-1.117-0.411-1.441
	c-0.274-0.324-0.658-0.486-1.153-0.486c-0.51,0-0.906,0.17-1.188,0.509C34.888,4.828,34.747,5.312,34.747,5.941z M43.988,4.083
	h-2.073v4.773h-1.409V4.083h-0.989V2.944h0.989V2.122c0-0.621,0.202-1.13,0.607-1.527C41.517,0.198,42.036,0,42.668,0
	c0.169,0,0.318,0.009,0.449,0.026c0.13,0.017,0.245,0.043,0.345,0.078v1.202c-0.046-0.027-0.127-0.059-0.242-0.098
	c-0.115-0.038-0.247-0.058-0.397-0.058c-0.292,0-0.516,0.091-0.673,0.273c-0.157,0.182-0.236,0.451-0.236,0.808v0.713h2.073V1.616
	l1.397-0.426v1.754h1.409v1.139h-1.409v2.766c0,0.364,0.066,0.621,0.198,0.771c0.132,0.15,0.34,0.224,0.624,0.224
	c0.08,0,0.177-0.019,0.29-0.058c0.113-0.038,0.212-0.084,0.296-0.138v1.15c-0.088,0.05-0.235,0.096-0.44,0.138
	C46.149,8.979,45.947,9,45.747,9c-0.587,0-1.027-0.156-1.32-0.469c-0.293-0.313-0.44-0.783-0.44-1.412V4.083z"/>
</svg>
